<mxfile host="app.diagrams.net" agent="Mozilla/5.0 (Macintosh; Intel Mac OS X 10_15_7) AppleWebKit/605.1.15 (KHTML, like Gecko) Version/18.3.1 Safari/605.1.15" version="26.2.14">
  <diagram name="Page-1" id="jsT0N0fRBXpK1URyJz6Q">
    <mxGraphModel dx="976" dy="1714" grid="1" gridSize="10" guides="1" tooltips="1" connect="1" arrows="1" fold="1" page="1" pageScale="1" pageWidth="850" pageHeight="1100" math="1" shadow="0">
      <root>
        <mxCell id="0" />
        <mxCell id="1" parent="0" />
        <mxCell id="nDarf_pPfflu9-YpbUOt-16" style="edgeStyle=orthogonalEdgeStyle;rounded=0;orthogonalLoop=1;jettySize=auto;html=1;" parent="1" source="nDarf_pPfflu9-YpbUOt-1" edge="1">
          <mxGeometry relative="1" as="geometry">
            <mxPoint x="230" y="-617.5" as="targetPoint" />
          </mxGeometry>
        </mxCell>
        <mxCell id="nDarf_pPfflu9-YpbUOt-149" value="1" style="edgeLabel;html=1;align=center;verticalAlign=middle;resizable=0;points=[];" parent="nDarf_pPfflu9-YpbUOt-16" vertex="1" connectable="0">
          <mxGeometry x="-0.2908" y="-4" relative="1" as="geometry">
            <mxPoint y="1" as="offset" />
          </mxGeometry>
        </mxCell>
        <mxCell id="nDarf_pPfflu9-YpbUOt-15" value="" style="group;strokeWidth=3;" parent="1" vertex="1" connectable="0">
          <mxGeometry x="230" y="-657.5" width="70" height="70" as="geometry" />
        </mxCell>
        <mxCell id="nDarf_pPfflu9-YpbUOt-5" value="" style="group;strokeWidth=3;" parent="nDarf_pPfflu9-YpbUOt-15" vertex="1" connectable="0">
          <mxGeometry width="70" height="10" as="geometry" />
        </mxCell>
        <mxCell id="nDarf_pPfflu9-YpbUOt-3" value="" style="endArrow=none;html=1;rounded=0;strokeWidth=3;" parent="nDarf_pPfflu9-YpbUOt-5" edge="1">
          <mxGeometry width="50" height="50" relative="1" as="geometry">
            <mxPoint as="sourcePoint" />
            <mxPoint x="70" as="targetPoint" />
          </mxGeometry>
        </mxCell>
        <mxCell id="nDarf_pPfflu9-YpbUOt-4" value="" style="endArrow=none;html=1;rounded=0;strokeWidth=3;" parent="nDarf_pPfflu9-YpbUOt-5" edge="1">
          <mxGeometry width="50" height="50" relative="1" as="geometry">
            <mxPoint y="10" as="sourcePoint" />
            <mxPoint x="70" y="10" as="targetPoint" />
          </mxGeometry>
        </mxCell>
        <mxCell id="nDarf_pPfflu9-YpbUOt-6" value="" style="group;strokeWidth=3;" parent="nDarf_pPfflu9-YpbUOt-15" vertex="1" connectable="0">
          <mxGeometry y="20" width="70" height="10" as="geometry" />
        </mxCell>
        <mxCell id="nDarf_pPfflu9-YpbUOt-7" value="" style="endArrow=none;html=1;rounded=0;strokeWidth=3;" parent="nDarf_pPfflu9-YpbUOt-6" edge="1">
          <mxGeometry width="50" height="50" relative="1" as="geometry">
            <mxPoint as="sourcePoint" />
            <mxPoint x="70" as="targetPoint" />
          </mxGeometry>
        </mxCell>
        <mxCell id="nDarf_pPfflu9-YpbUOt-8" value="" style="endArrow=none;html=1;rounded=0;strokeWidth=3;" parent="nDarf_pPfflu9-YpbUOt-6" edge="1">
          <mxGeometry width="50" height="50" relative="1" as="geometry">
            <mxPoint y="10" as="sourcePoint" />
            <mxPoint x="70" y="10" as="targetPoint" />
          </mxGeometry>
        </mxCell>
        <mxCell id="nDarf_pPfflu9-YpbUOt-9" value="" style="group;strokeWidth=3;" parent="nDarf_pPfflu9-YpbUOt-15" vertex="1" connectable="0">
          <mxGeometry y="40" width="70" height="10" as="geometry" />
        </mxCell>
        <mxCell id="nDarf_pPfflu9-YpbUOt-10" value="" style="endArrow=none;html=1;rounded=0;strokeWidth=3;" parent="nDarf_pPfflu9-YpbUOt-9" edge="1">
          <mxGeometry width="50" height="50" relative="1" as="geometry">
            <mxPoint as="sourcePoint" />
            <mxPoint x="70" as="targetPoint" />
          </mxGeometry>
        </mxCell>
        <mxCell id="nDarf_pPfflu9-YpbUOt-11" value="" style="endArrow=none;html=1;rounded=0;strokeWidth=3;" parent="nDarf_pPfflu9-YpbUOt-9" edge="1">
          <mxGeometry width="50" height="50" relative="1" as="geometry">
            <mxPoint y="10" as="sourcePoint" />
            <mxPoint x="70" y="10" as="targetPoint" />
          </mxGeometry>
        </mxCell>
        <mxCell id="nDarf_pPfflu9-YpbUOt-12" value="" style="group;strokeWidth=3;" parent="nDarf_pPfflu9-YpbUOt-15" vertex="1" connectable="0">
          <mxGeometry y="60" width="70" height="10" as="geometry" />
        </mxCell>
        <mxCell id="nDarf_pPfflu9-YpbUOt-13" value="" style="endArrow=none;html=1;rounded=0;strokeWidth=3;" parent="nDarf_pPfflu9-YpbUOt-12" edge="1">
          <mxGeometry width="50" height="50" relative="1" as="geometry">
            <mxPoint as="sourcePoint" />
            <mxPoint x="70" as="targetPoint" />
          </mxGeometry>
        </mxCell>
        <mxCell id="nDarf_pPfflu9-YpbUOt-14" value="" style="endArrow=none;html=1;rounded=0;strokeWidth=3;" parent="nDarf_pPfflu9-YpbUOt-12" edge="1">
          <mxGeometry width="50" height="50" relative="1" as="geometry">
            <mxPoint y="10" as="sourcePoint" />
            <mxPoint x="70" y="10" as="targetPoint" />
          </mxGeometry>
        </mxCell>
        <mxCell id="nDarf_pPfflu9-YpbUOt-17" value="Claim/Social&lt;div&gt;&amp;nbsp;media post&lt;/div&gt;" style="text;html=1;align=center;verticalAlign=middle;resizable=0;points=[];autosize=1;strokeColor=none;fillColor=none;" parent="1" vertex="1">
          <mxGeometry x="220" y="-587.5" width="90" height="40" as="geometry" />
        </mxCell>
        <mxCell id="nDarf_pPfflu9-YpbUOt-18" value="C&lt;sub&gt;1&lt;/sub&gt;" style="rounded=1;whiteSpace=wrap;html=1;" parent="1" vertex="1">
          <mxGeometry x="395" y="-687.5" width="60" height="30" as="geometry" />
        </mxCell>
        <mxCell id="nDarf_pPfflu9-YpbUOt-19" value="C&lt;sub&gt;2&lt;/sub&gt;" style="rounded=1;whiteSpace=wrap;html=1;" parent="1" vertex="1">
          <mxGeometry x="395" y="-632.5" width="60" height="30" as="geometry" />
        </mxCell>
        <mxCell id="nDarf_pPfflu9-YpbUOt-20" value="C&lt;sub&gt;n&lt;/sub&gt;" style="rounded=1;whiteSpace=wrap;html=1;" parent="1" vertex="1">
          <mxGeometry x="395" y="-547.5" width="60" height="30" as="geometry" />
        </mxCell>
        <mxCell id="nDarf_pPfflu9-YpbUOt-23" value="" style="endArrow=classic;html=1;rounded=0;entryX=0;entryY=0.5;entryDx=0;entryDy=0;" parent="1" target="nDarf_pPfflu9-YpbUOt-18" edge="1">
          <mxGeometry width="50" height="50" relative="1" as="geometry">
            <mxPoint x="300" y="-617.5" as="sourcePoint" />
            <mxPoint x="460" y="-497.5" as="targetPoint" />
            <Array as="points">
              <mxPoint x="350" y="-617.5" />
              <mxPoint x="350" y="-672.5" />
            </Array>
          </mxGeometry>
        </mxCell>
        <mxCell id="nDarf_pPfflu9-YpbUOt-150" value="2" style="edgeLabel;html=1;align=center;verticalAlign=middle;resizable=0;points=[];" parent="nDarf_pPfflu9-YpbUOt-23" vertex="1" connectable="0">
          <mxGeometry x="-0.6" y="-2" relative="1" as="geometry">
            <mxPoint y="1" as="offset" />
          </mxGeometry>
        </mxCell>
        <mxCell id="nDarf_pPfflu9-YpbUOt-24" value="" style="endArrow=none;dashed=1;html=1;dashPattern=1 3;strokeWidth=2;rounded=0;" parent="1" edge="1">
          <mxGeometry width="50" height="50" relative="1" as="geometry">
            <mxPoint x="425" y="-587.5" as="sourcePoint" />
            <mxPoint x="425" y="-557.5" as="targetPoint" />
          </mxGeometry>
        </mxCell>
        <mxCell id="nDarf_pPfflu9-YpbUOt-25" value="" style="endArrow=classic;html=1;rounded=0;entryX=0;entryY=0.5;entryDx=0;entryDy=0;" parent="1" target="nDarf_pPfflu9-YpbUOt-19" edge="1">
          <mxGeometry width="50" height="50" relative="1" as="geometry">
            <mxPoint x="350" y="-617.5" as="sourcePoint" />
            <mxPoint x="460" y="-497.5" as="targetPoint" />
            <Array as="points" />
          </mxGeometry>
        </mxCell>
        <mxCell id="nDarf_pPfflu9-YpbUOt-26" value="" style="endArrow=classic;html=1;rounded=0;entryX=0;entryY=0.5;entryDx=0;entryDy=0;" parent="1" target="nDarf_pPfflu9-YpbUOt-20" edge="1">
          <mxGeometry width="50" height="50" relative="1" as="geometry">
            <mxPoint x="350" y="-617.5" as="sourcePoint" />
            <mxPoint x="460" y="-497.5" as="targetPoint" />
            <Array as="points">
              <mxPoint x="350" y="-532.5" />
            </Array>
          </mxGeometry>
        </mxCell>
        <mxCell id="nDarf_pPfflu9-YpbUOt-30" value="" style="group" parent="1" vertex="1" connectable="0">
          <mxGeometry x="520" y="-700" width="90" height="55" as="geometry" />
        </mxCell>
        <mxCell id="nDarf_pPfflu9-YpbUOt-50" value="" style="group" parent="nDarf_pPfflu9-YpbUOt-30" vertex="1" connectable="0">
          <mxGeometry width="80" height="47.5" as="geometry" />
        </mxCell>
        <mxCell id="nDarf_pPfflu9-YpbUOt-28" value="" style="verticalLabelPosition=bottom;verticalAlign=top;html=1;shape=mxgraph.basic.diag_round_rect;dx=6;whiteSpace=wrap;" parent="nDarf_pPfflu9-YpbUOt-50" vertex="1">
          <mxGeometry width="70" height="40" as="geometry" />
        </mxCell>
        <mxCell id="nDarf_pPfflu9-YpbUOt-52" style="edgeStyle=orthogonalEdgeStyle;rounded=0;orthogonalLoop=1;jettySize=auto;html=1;exitX=1;exitY=0.5;exitDx=0;exitDy=0;exitPerimeter=0;" parent="nDarf_pPfflu9-YpbUOt-50" source="nDarf_pPfflu9-YpbUOt-29" edge="1">
          <mxGeometry relative="1" as="geometry">
            <mxPoint x="240" y="82.5" as="targetPoint" />
            <Array as="points">
              <mxPoint x="120" y="28" />
              <mxPoint x="120" y="83" />
            </Array>
          </mxGeometry>
        </mxCell>
        <mxCell id="nDarf_pPfflu9-YpbUOt-29" value="" style="verticalLabelPosition=bottom;verticalAlign=top;html=1;shape=mxgraph.basic.diag_round_rect;dx=6;whiteSpace=wrap;" parent="nDarf_pPfflu9-YpbUOt-50" vertex="1">
          <mxGeometry x="10" y="7.5" width="70" height="40" as="geometry" />
        </mxCell>
        <mxCell id="nDarf_pPfflu9-YpbUOt-41" value="E&lt;font size=&quot;1&quot;&gt;1&lt;sup&gt;1&amp;nbsp;&lt;/sup&gt;&lt;/font&gt;E&lt;font size=&quot;1&quot;&gt;1&lt;sup&gt;2&amp;nbsp;&lt;/sup&gt;&lt;/font&gt;..." style="text;html=1;align=center;verticalAlign=middle;whiteSpace=wrap;rounded=0;" parent="nDarf_pPfflu9-YpbUOt-50" vertex="1">
          <mxGeometry x="15" y="10" width="60" height="30" as="geometry" />
        </mxCell>
        <mxCell id="nDarf_pPfflu9-YpbUOt-31" value="" style="group" parent="1" vertex="1" connectable="0">
          <mxGeometry x="520" y="-647.5" width="90" height="55" as="geometry" />
        </mxCell>
        <mxCell id="nDarf_pPfflu9-YpbUOt-54" value="" style="group" parent="nDarf_pPfflu9-YpbUOt-31" vertex="1" connectable="0">
          <mxGeometry width="90" height="47.5" as="geometry" />
        </mxCell>
        <mxCell id="nDarf_pPfflu9-YpbUOt-32" value="" style="verticalLabelPosition=bottom;verticalAlign=top;html=1;shape=mxgraph.basic.diag_round_rect;dx=6;whiteSpace=wrap;" parent="nDarf_pPfflu9-YpbUOt-54" vertex="1">
          <mxGeometry width="70" height="40" as="geometry" />
        </mxCell>
        <mxCell id="nDarf_pPfflu9-YpbUOt-48" value="" style="group" parent="nDarf_pPfflu9-YpbUOt-54" vertex="1" connectable="0">
          <mxGeometry x="10" y="7.5" width="80" height="40" as="geometry" />
        </mxCell>
        <mxCell id="nDarf_pPfflu9-YpbUOt-55" style="edgeStyle=orthogonalEdgeStyle;rounded=0;orthogonalLoop=1;jettySize=auto;html=1;exitX=1;exitY=0.5;exitDx=0;exitDy=0;exitPerimeter=0;" parent="nDarf_pPfflu9-YpbUOt-48" source="nDarf_pPfflu9-YpbUOt-33" edge="1">
          <mxGeometry relative="1" as="geometry">
            <mxPoint x="230" y="22.5" as="targetPoint" />
            <Array as="points">
              <mxPoint x="70" y="23" />
              <mxPoint x="150" y="23" />
            </Array>
          </mxGeometry>
        </mxCell>
        <mxCell id="nDarf_pPfflu9-YpbUOt-33" value="" style="verticalLabelPosition=bottom;verticalAlign=top;html=1;shape=mxgraph.basic.diag_round_rect;dx=6;whiteSpace=wrap;" parent="nDarf_pPfflu9-YpbUOt-48" vertex="1">
          <mxGeometry width="70" height="40" as="geometry" />
        </mxCell>
        <mxCell id="nDarf_pPfflu9-YpbUOt-42" value="&lt;span style=&quot;white-space: normal;&quot;&gt;E&lt;/span&gt;&lt;font style=&quot;white-space: normal;&quot; size=&quot;1&quot;&gt;2&lt;sup&gt;1&amp;nbsp;&lt;/sup&gt;&lt;/font&gt;&lt;span style=&quot;white-space: normal;&quot;&gt;E&lt;/span&gt;&lt;font style=&quot;white-space: normal;&quot; size=&quot;1&quot;&gt;2&lt;sup&gt;2&amp;nbsp;&lt;/sup&gt;&lt;/font&gt;&lt;span style=&quot;white-space: normal;&quot;&gt;...&lt;/span&gt;" style="text;html=1;align=center;verticalAlign=middle;resizable=0;points=[];autosize=1;strokeColor=none;fillColor=none;" parent="nDarf_pPfflu9-YpbUOt-48" vertex="1">
          <mxGeometry y="5" width="80" height="30" as="geometry" />
        </mxCell>
        <mxCell id="nDarf_pPfflu9-YpbUOt-34" value="" style="group" parent="1" vertex="1" connectable="0">
          <mxGeometry x="520" y="-560" width="110" height="87.5" as="geometry" />
        </mxCell>
        <mxCell id="nDarf_pPfflu9-YpbUOt-35" value="" style="verticalLabelPosition=bottom;verticalAlign=top;html=1;shape=mxgraph.basic.diag_round_rect;dx=6;whiteSpace=wrap;" parent="nDarf_pPfflu9-YpbUOt-34" vertex="1">
          <mxGeometry width="70" height="40" as="geometry" />
        </mxCell>
        <mxCell id="nDarf_pPfflu9-YpbUOt-36" value="" style="verticalLabelPosition=bottom;verticalAlign=top;html=1;shape=mxgraph.basic.diag_round_rect;dx=6;whiteSpace=wrap;" parent="nDarf_pPfflu9-YpbUOt-34" vertex="1">
          <mxGeometry x="10" y="7.5" width="70" height="40" as="geometry" />
        </mxCell>
        <mxCell id="nDarf_pPfflu9-YpbUOt-43" value="&lt;span style=&quot;caret-color: rgb(0, 0, 0); color: rgb(0, 0, 0); font-family: Helvetica; font-size: 12px; font-style: normal; font-variant-caps: normal; font-weight: 400; letter-spacing: normal; text-align: center; text-indent: 0px; text-transform: none; white-space: normal; word-spacing: 0px; -webkit-text-stroke-width: 0px; background-color: rgb(251, 251, 251); text-decoration: none; float: none; display: inline !important;&quot;&gt;E&lt;/span&gt;&lt;font size=&quot;1&quot; style=&quot;caret-color: rgb(0, 0, 0); color: rgb(0, 0, 0); font-family: Helvetica; font-style: normal; font-variant-caps: normal; font-weight: 400; letter-spacing: normal; text-align: center; text-indent: 0px; text-transform: none; white-space: normal; word-spacing: 0px; -webkit-text-stroke-width: 0px; text-decoration: none;&quot;&gt;3&lt;sup&gt;1&amp;nbsp;&lt;/sup&gt;&lt;/font&gt;&lt;span style=&quot;caret-color: rgb(0, 0, 0); color: rgb(0, 0, 0); font-family: Helvetica; font-size: 12px; font-style: normal; font-variant-caps: normal; font-weight: 400; letter-spacing: normal; text-align: center; text-indent: 0px; text-transform: none; white-space: normal; word-spacing: 0px; -webkit-text-stroke-width: 0px; background-color: rgb(251, 251, 251); text-decoration: none; float: none; display: inline !important;&quot;&gt;E&lt;/span&gt;&lt;font size=&quot;1&quot; style=&quot;caret-color: rgb(0, 0, 0); color: rgb(0, 0, 0); font-family: Helvetica; font-style: normal; font-variant-caps: normal; font-weight: 400; letter-spacing: normal; text-align: center; text-indent: 0px; text-transform: none; white-space: normal; word-spacing: 0px; -webkit-text-stroke-width: 0px; text-decoration: none;&quot;&gt;3&lt;sup&gt;2&amp;nbsp;&lt;/sup&gt;&lt;/font&gt;&lt;span style=&quot;caret-color: rgb(0, 0, 0); color: rgb(0, 0, 0); font-family: Helvetica; font-size: 12px; font-style: normal; font-variant-caps: normal; font-weight: 400; letter-spacing: normal; text-align: center; text-indent: 0px; text-transform: none; white-space: normal; word-spacing: 0px; -webkit-text-stroke-width: 0px; background-color: rgb(251, 251, 251); text-decoration: none; float: none; display: inline !important;&quot;&gt;...&lt;/span&gt;" style="text;whiteSpace=wrap;html=1;" parent="nDarf_pPfflu9-YpbUOt-34" vertex="1">
          <mxGeometry x="20" y="15" width="90" height="40" as="geometry" />
        </mxCell>
        <mxCell id="nDarf_pPfflu9-YpbUOt-147" value="Web Search /&lt;div&gt;Evidence gathering&amp;nbsp;&lt;/div&gt;" style="text;html=1;align=center;verticalAlign=middle;resizable=0;points=[];autosize=1;strokeColor=none;fillColor=none;" parent="nDarf_pPfflu9-YpbUOt-34" vertex="1">
          <mxGeometry x="-20" y="47.5" width="130" height="40" as="geometry" />
        </mxCell>
        <mxCell id="nDarf_pPfflu9-YpbUOt-37" style="edgeStyle=orthogonalEdgeStyle;rounded=0;orthogonalLoop=1;jettySize=auto;html=1;exitX=1;exitY=0.5;exitDx=0;exitDy=0;entryX=0;entryY=0.688;entryDx=0;entryDy=0;entryPerimeter=0;" parent="1" source="nDarf_pPfflu9-YpbUOt-18" target="nDarf_pPfflu9-YpbUOt-28" edge="1">
          <mxGeometry relative="1" as="geometry" />
        </mxCell>
        <mxCell id="nDarf_pPfflu9-YpbUOt-151" value="3" style="edgeLabel;html=1;align=center;verticalAlign=middle;resizable=0;points=[];" parent="nDarf_pPfflu9-YpbUOt-37" vertex="1" connectable="0">
          <mxGeometry x="-0.1692" y="-1" relative="1" as="geometry">
            <mxPoint as="offset" />
          </mxGeometry>
        </mxCell>
        <mxCell id="nDarf_pPfflu9-YpbUOt-38" value="3" style="edgeStyle=orthogonalEdgeStyle;rounded=0;orthogonalLoop=1;jettySize=auto;html=1;exitX=1;exitY=0.5;exitDx=0;exitDy=0;entryX=0.029;entryY=0.75;entryDx=0;entryDy=0;entryPerimeter=0;" parent="1" source="nDarf_pPfflu9-YpbUOt-19" target="nDarf_pPfflu9-YpbUOt-32" edge="1">
          <mxGeometry relative="1" as="geometry" />
        </mxCell>
        <mxCell id="nDarf_pPfflu9-YpbUOt-40" style="edgeStyle=orthogonalEdgeStyle;rounded=0;orthogonalLoop=1;jettySize=auto;html=1;exitX=1;exitY=0.5;exitDx=0;exitDy=0;entryX=0;entryY=0.675;entryDx=0;entryDy=0;entryPerimeter=0;" parent="1" source="nDarf_pPfflu9-YpbUOt-20" target="nDarf_pPfflu9-YpbUOt-35" edge="1">
          <mxGeometry relative="1" as="geometry">
            <mxPoint x="500" y="-532.5" as="targetPoint" />
          </mxGeometry>
        </mxCell>
        <mxCell id="nDarf_pPfflu9-YpbUOt-152" value="3" style="edgeLabel;html=1;align=center;verticalAlign=middle;resizable=0;points=[];" parent="nDarf_pPfflu9-YpbUOt-40" vertex="1" connectable="0">
          <mxGeometry x="-0.1145" y="3" relative="1" as="geometry">
            <mxPoint y="1" as="offset" />
          </mxGeometry>
        </mxCell>
        <mxCell id="nDarf_pPfflu9-YpbUOt-44" value="" style="endArrow=none;dashed=1;html=1;dashPattern=1 3;strokeWidth=2;rounded=0;" parent="1" edge="1">
          <mxGeometry width="50" height="50" relative="1" as="geometry">
            <mxPoint x="560" y="-587.5" as="sourcePoint" />
            <mxPoint x="560" y="-567.5" as="targetPoint" />
          </mxGeometry>
        </mxCell>
        <mxCell id="nDarf_pPfflu9-YpbUOt-60" style="edgeStyle=orthogonalEdgeStyle;rounded=0;orthogonalLoop=1;jettySize=auto;html=1;exitX=0.5;exitY=1;exitDx=0;exitDy=0;exitPerimeter=0;entryX=1;entryY=0.5;entryDx=0;entryDy=0;" parent="1" source="nDarf_pPfflu9-YpbUOt-58" target="nDarf_pPfflu9-YpbUOt-84" edge="1">
          <mxGeometry relative="1" as="geometry">
            <mxPoint x="670" y="-340" as="targetPoint" />
            <Array as="points">
              <mxPoint x="780" y="-360" />
            </Array>
          </mxGeometry>
        </mxCell>
        <mxCell id="nDarf_pPfflu9-YpbUOt-154" value="5" style="edgeLabel;html=1;align=center;verticalAlign=middle;resizable=0;points=[];" parent="nDarf_pPfflu9-YpbUOt-60" vertex="1" connectable="0">
          <mxGeometry x="-0.3617" y="-2" relative="1" as="geometry">
            <mxPoint as="offset" />
          </mxGeometry>
        </mxCell>
        <mxCell id="cOMKCjNGTxWylodBZS9a-1" style="edgeStyle=orthogonalEdgeStyle;rounded=0;orthogonalLoop=1;jettySize=auto;html=1;exitX=0.5;exitY=1;exitDx=0;exitDy=0;exitPerimeter=0;" edge="1" parent="1" source="nDarf_pPfflu9-YpbUOt-58">
          <mxGeometry relative="1" as="geometry">
            <mxPoint x="260" y="-390" as="targetPoint" />
            <Array as="points">
              <mxPoint x="780" y="-470" />
              <mxPoint x="261" y="-470" />
            </Array>
          </mxGeometry>
        </mxCell>
        <mxCell id="cOMKCjNGTxWylodBZS9a-16" value="7" style="edgeLabel;html=1;align=center;verticalAlign=middle;resizable=0;points=[];" vertex="1" connectable="0" parent="cOMKCjNGTxWylodBZS9a-1">
          <mxGeometry x="0.1059" y="1" relative="1" as="geometry">
            <mxPoint as="offset" />
          </mxGeometry>
        </mxCell>
        <mxCell id="nDarf_pPfflu9-YpbUOt-58" value="" style="verticalLabelPosition=bottom;verticalAlign=top;html=1;shape=mxgraph.basic.diag_round_rect;dx=6;whiteSpace=wrap;" parent="1" vertex="1">
          <mxGeometry x="740" y="-675" width="80" height="115" as="geometry" />
        </mxCell>
        <mxCell id="nDarf_pPfflu9-YpbUOt-59" value="Combined evidence of all atomic claims" style="text;html=1;align=center;verticalAlign=middle;whiteSpace=wrap;rounded=0;" parent="1" vertex="1">
          <mxGeometry x="750" y="-632.5" width="60" height="30" as="geometry" />
        </mxCell>
        <mxCell id="nDarf_pPfflu9-YpbUOt-83" value="" style="group" parent="1" vertex="1" connectable="0">
          <mxGeometry x="575" y="-440" width="165" height="190" as="geometry" />
        </mxCell>
        <mxCell id="nDarf_pPfflu9-YpbUOt-122" style="edgeStyle=orthogonalEdgeStyle;rounded=0;orthogonalLoop=1;jettySize=auto;html=1;exitX=0;exitY=0.5;exitDx=0;exitDy=0;" parent="nDarf_pPfflu9-YpbUOt-83" source="nDarf_pPfflu9-YpbUOt-84" edge="1">
          <mxGeometry relative="1" as="geometry">
            <mxPoint x="-60" y="80" as="targetPoint" />
          </mxGeometry>
        </mxCell>
        <mxCell id="nDarf_pPfflu9-YpbUOt-155" value="6" style="edgeLabel;html=1;align=center;verticalAlign=middle;resizable=0;points=[];" parent="nDarf_pPfflu9-YpbUOt-122" vertex="1" connectable="0">
          <mxGeometry x="0.2723" y="1" relative="1" as="geometry">
            <mxPoint as="offset" />
          </mxGeometry>
        </mxCell>
        <mxCell id="nDarf_pPfflu9-YpbUOt-84" value="" style="whiteSpace=wrap;html=1;aspect=fixed;" parent="nDarf_pPfflu9-YpbUOt-83" vertex="1">
          <mxGeometry width="160" height="160" as="geometry" />
        </mxCell>
        <mxCell id="nDarf_pPfflu9-YpbUOt-85" style="rounded=0;orthogonalLoop=1;jettySize=auto;html=1;exitX=1;exitY=0.5;exitDx=0;exitDy=0;entryX=0;entryY=0.5;entryDx=0;entryDy=0;endArrow=none;endFill=0;" parent="nDarf_pPfflu9-YpbUOt-83" source="nDarf_pPfflu9-YpbUOt-86" target="nDarf_pPfflu9-YpbUOt-96" edge="1">
          <mxGeometry relative="1" as="geometry" />
        </mxCell>
        <mxCell id="nDarf_pPfflu9-YpbUOt-86" value="" style="ellipse;whiteSpace=wrap;html=1;aspect=fixed;" parent="nDarf_pPfflu9-YpbUOt-83" vertex="1">
          <mxGeometry x="14.117647058823529" y="18.823529411764707" width="28.235294117647058" height="28.235294117647058" as="geometry" />
        </mxCell>
        <mxCell id="nDarf_pPfflu9-YpbUOt-87" style="rounded=0;orthogonalLoop=1;jettySize=auto;html=1;exitX=1;exitY=0;exitDx=0;exitDy=0;entryX=0;entryY=1;entryDx=0;entryDy=0;endArrow=none;endFill=0;" parent="nDarf_pPfflu9-YpbUOt-83" source="nDarf_pPfflu9-YpbUOt-88" target="nDarf_pPfflu9-YpbUOt-100" edge="1">
          <mxGeometry relative="1" as="geometry" />
        </mxCell>
        <mxCell id="nDarf_pPfflu9-YpbUOt-88" value="" style="ellipse;whiteSpace=wrap;html=1;aspect=fixed;" parent="nDarf_pPfflu9-YpbUOt-83" vertex="1">
          <mxGeometry x="23.52941176470588" y="122.35294117647058" width="28.235294117647058" height="28.235294117647058" as="geometry" />
        </mxCell>
        <mxCell id="nDarf_pPfflu9-YpbUOt-89" style="rounded=0;orthogonalLoop=1;jettySize=auto;html=1;exitX=1;exitY=0;exitDx=0;exitDy=0;entryX=0;entryY=0.5;entryDx=0;entryDy=0;endArrow=none;endFill=0;" parent="nDarf_pPfflu9-YpbUOt-83" source="nDarf_pPfflu9-YpbUOt-91" target="nDarf_pPfflu9-YpbUOt-94" edge="1">
          <mxGeometry relative="1" as="geometry" />
        </mxCell>
        <mxCell id="nDarf_pPfflu9-YpbUOt-90" style="rounded=0;orthogonalLoop=1;jettySize=auto;html=1;exitX=1;exitY=1;exitDx=0;exitDy=0;entryX=0.5;entryY=0;entryDx=0;entryDy=0;endArrow=none;endFill=0;" parent="nDarf_pPfflu9-YpbUOt-83" source="nDarf_pPfflu9-YpbUOt-91" target="nDarf_pPfflu9-YpbUOt-92" edge="1">
          <mxGeometry relative="1" as="geometry" />
        </mxCell>
        <mxCell id="nDarf_pPfflu9-YpbUOt-91" value="" style="ellipse;whiteSpace=wrap;html=1;aspect=fixed;" parent="nDarf_pPfflu9-YpbUOt-83" vertex="1">
          <mxGeometry x="65.88235294117646" y="47.05882352941176" width="28.235294117647058" height="28.235294117647058" as="geometry" />
        </mxCell>
        <mxCell id="nDarf_pPfflu9-YpbUOt-92" value="" style="ellipse;whiteSpace=wrap;html=1;aspect=fixed;" parent="nDarf_pPfflu9-YpbUOt-83" vertex="1">
          <mxGeometry x="108.23529411764706" y="112.94117647058823" width="28.235294117647058" height="28.235294117647058" as="geometry" />
        </mxCell>
        <mxCell id="nDarf_pPfflu9-YpbUOt-93" style="rounded=0;orthogonalLoop=1;jettySize=auto;html=1;exitX=0.5;exitY=1;exitDx=0;exitDy=0;entryX=0.5;entryY=0;entryDx=0;entryDy=0;endArrow=none;endFill=0;" parent="nDarf_pPfflu9-YpbUOt-83" source="nDarf_pPfflu9-YpbUOt-94" target="nDarf_pPfflu9-YpbUOt-102" edge="1">
          <mxGeometry relative="1" as="geometry" />
        </mxCell>
        <mxCell id="nDarf_pPfflu9-YpbUOt-94" value="" style="ellipse;whiteSpace=wrap;html=1;aspect=fixed;" parent="nDarf_pPfflu9-YpbUOt-83" vertex="1">
          <mxGeometry x="108.23529411764706" y="28.235294117647058" width="28.235294117647058" height="28.235294117647058" as="geometry" />
        </mxCell>
        <mxCell id="nDarf_pPfflu9-YpbUOt-95" style="rounded=0;orthogonalLoop=1;jettySize=auto;html=1;exitX=0.5;exitY=1;exitDx=0;exitDy=0;entryX=0.5;entryY=0;entryDx=0;entryDy=0;endArrow=none;endFill=0;" parent="nDarf_pPfflu9-YpbUOt-83" source="nDarf_pPfflu9-YpbUOt-96" target="nDarf_pPfflu9-YpbUOt-91" edge="1">
          <mxGeometry relative="1" as="geometry" />
        </mxCell>
        <mxCell id="nDarf_pPfflu9-YpbUOt-96" value="" style="ellipse;whiteSpace=wrap;html=1;aspect=fixed;" parent="nDarf_pPfflu9-YpbUOt-83" vertex="1">
          <mxGeometry x="61.17647058823529" y="9.411764705882353" width="28.235294117647058" height="28.235294117647058" as="geometry" />
        </mxCell>
        <mxCell id="nDarf_pPfflu9-YpbUOt-97" style="rounded=0;orthogonalLoop=1;jettySize=auto;html=1;exitX=1;exitY=0.5;exitDx=0;exitDy=0;entryX=0;entryY=0.5;entryDx=0;entryDy=0;endArrow=none;endFill=0;" parent="nDarf_pPfflu9-YpbUOt-83" source="nDarf_pPfflu9-YpbUOt-98" target="nDarf_pPfflu9-YpbUOt-91" edge="1">
          <mxGeometry relative="1" as="geometry" />
        </mxCell>
        <mxCell id="nDarf_pPfflu9-YpbUOt-98" value="" style="ellipse;whiteSpace=wrap;html=1;aspect=fixed;" parent="nDarf_pPfflu9-YpbUOt-83" vertex="1">
          <mxGeometry x="14.117647058823529" y="65.88235294117646" width="28.235294117647058" height="28.235294117647058" as="geometry" />
        </mxCell>
        <mxCell id="nDarf_pPfflu9-YpbUOt-99" style="rounded=0;orthogonalLoop=1;jettySize=auto;html=1;exitX=0.5;exitY=0;exitDx=0;exitDy=0;entryX=0.5;entryY=1;entryDx=0;entryDy=0;endArrow=none;endFill=0;" parent="nDarf_pPfflu9-YpbUOt-83" source="nDarf_pPfflu9-YpbUOt-100" target="nDarf_pPfflu9-YpbUOt-91" edge="1">
          <mxGeometry relative="1" as="geometry" />
        </mxCell>
        <mxCell id="nDarf_pPfflu9-YpbUOt-100" value="" style="ellipse;whiteSpace=wrap;html=1;aspect=fixed;" parent="nDarf_pPfflu9-YpbUOt-83" vertex="1">
          <mxGeometry x="61.17647058823529" y="84.70588235294117" width="28.235294117647058" height="28.235294117647058" as="geometry" />
        </mxCell>
        <mxCell id="nDarf_pPfflu9-YpbUOt-101" style="rounded=0;orthogonalLoop=1;jettySize=auto;html=1;exitX=1;exitY=1;exitDx=0;exitDy=0;entryX=0.056;entryY=0.339;entryDx=0;entryDy=0;entryPerimeter=0;endArrow=none;endFill=0;" parent="nDarf_pPfflu9-YpbUOt-83" source="nDarf_pPfflu9-YpbUOt-98" target="nDarf_pPfflu9-YpbUOt-100" edge="1">
          <mxGeometry relative="1" as="geometry" />
        </mxCell>
        <mxCell id="nDarf_pPfflu9-YpbUOt-102" value="" style="ellipse;whiteSpace=wrap;html=1;aspect=fixed;" parent="nDarf_pPfflu9-YpbUOt-83" vertex="1">
          <mxGeometry x="117.6470588235294" y="65.88235294117646" width="28.235294117647058" height="28.235294117647058" as="geometry" />
        </mxCell>
        <mxCell id="nDarf_pPfflu9-YpbUOt-103" value="Knowledge Graph generation&amp;nbsp;" style="text;html=1;align=center;verticalAlign=middle;whiteSpace=wrap;rounded=0;" parent="nDarf_pPfflu9-YpbUOt-83" vertex="1">
          <mxGeometry x="-5" y="160" width="170" height="30" as="geometry" />
        </mxCell>
        <mxCell id="nDarf_pPfflu9-YpbUOt-105" value="" style="group" parent="1" vertex="1" connectable="0">
          <mxGeometry x="365" y="-430" width="155" height="170" as="geometry" />
        </mxCell>
        <mxCell id="nDarf_pPfflu9-YpbUOt-138" style="edgeStyle=orthogonalEdgeStyle;rounded=0;orthogonalLoop=1;jettySize=auto;html=1;exitX=0;exitY=0.5;exitDx=0;exitDy=0;" parent="nDarf_pPfflu9-YpbUOt-105" source="nDarf_pPfflu9-YpbUOt-106" edge="1">
          <mxGeometry relative="1" as="geometry">
            <mxPoint x="-70" y="70" as="targetPoint" />
          </mxGeometry>
        </mxCell>
        <mxCell id="nDarf_pPfflu9-YpbUOt-156" value="7" style="edgeLabel;html=1;align=center;verticalAlign=middle;resizable=0;points=[];" parent="nDarf_pPfflu9-YpbUOt-138" vertex="1" connectable="0">
          <mxGeometry x="0.1495" y="-1" relative="1" as="geometry">
            <mxPoint as="offset" />
          </mxGeometry>
        </mxCell>
        <mxCell id="nDarf_pPfflu9-YpbUOt-106" value="" style="rounded=0;whiteSpace=wrap;html=1;" parent="nDarf_pPfflu9-YpbUOt-105" vertex="1">
          <mxGeometry width="150" height="140" as="geometry" />
        </mxCell>
        <mxCell id="nDarf_pPfflu9-YpbUOt-107" value="" style="group" parent="nDarf_pPfflu9-YpbUOt-105" vertex="1" connectable="0">
          <mxGeometry x="20.501730103806224" y="19.121764705882356" width="108.99653979238754" height="101.76470588235294" as="geometry" />
        </mxCell>
        <mxCell id="nDarf_pPfflu9-YpbUOt-108" style="rounded=0;orthogonalLoop=1;jettySize=auto;html=1;exitX=1;exitY=0;exitDx=0;exitDy=0;entryX=0;entryY=0.5;entryDx=0;entryDy=0;endArrow=none;endFill=0;" parent="nDarf_pPfflu9-YpbUOt-107" source="nDarf_pPfflu9-YpbUOt-110" target="nDarf_pPfflu9-YpbUOt-112" edge="1">
          <mxGeometry relative="1" as="geometry" />
        </mxCell>
        <mxCell id="nDarf_pPfflu9-YpbUOt-109" style="edgeStyle=orthogonalEdgeStyle;rounded=0;orthogonalLoop=1;jettySize=auto;html=1;exitX=0.5;exitY=0;exitDx=0;exitDy=0;" parent="nDarf_pPfflu9-YpbUOt-107" source="nDarf_pPfflu9-YpbUOt-110" edge="1">
          <mxGeometry relative="1" as="geometry">
            <mxPoint x="58.91003460207611" y="37.421568627451165" as="targetPoint" />
          </mxGeometry>
        </mxCell>
        <mxCell id="nDarf_pPfflu9-YpbUOt-110" value="" style="ellipse;whiteSpace=wrap;html=1;aspect=fixed;" parent="nDarf_pPfflu9-YpbUOt-107" vertex="1">
          <mxGeometry x="42.82006920415224" y="37.647058823529406" width="23.356401384083043" height="23.356401384083043" as="geometry" />
        </mxCell>
        <mxCell id="nDarf_pPfflu9-YpbUOt-111" style="rounded=0;orthogonalLoop=1;jettySize=auto;html=1;exitX=0.5;exitY=1;exitDx=0;exitDy=0;entryX=0.5;entryY=0;entryDx=0;entryDy=0;endArrow=none;endFill=0;" parent="nDarf_pPfflu9-YpbUOt-107" source="nDarf_pPfflu9-YpbUOt-112" target="nDarf_pPfflu9-YpbUOt-120" edge="1">
          <mxGeometry relative="1" as="geometry" />
        </mxCell>
        <mxCell id="nDarf_pPfflu9-YpbUOt-112" value="" style="ellipse;whiteSpace=wrap;html=1;aspect=fixed;" parent="nDarf_pPfflu9-YpbUOt-107" vertex="1">
          <mxGeometry x="77.8546712802768" y="18.823529411764703" width="23.356401384083043" height="23.356401384083043" as="geometry" />
        </mxCell>
        <mxCell id="nDarf_pPfflu9-YpbUOt-113" style="rounded=0;orthogonalLoop=1;jettySize=auto;html=1;exitX=0.5;exitY=1;exitDx=0;exitDy=0;entryX=0.5;entryY=0;entryDx=0;entryDy=0;endArrow=none;endFill=0;" parent="nDarf_pPfflu9-YpbUOt-107" source="nDarf_pPfflu9-YpbUOt-114" target="nDarf_pPfflu9-YpbUOt-110" edge="1">
          <mxGeometry relative="1" as="geometry" />
        </mxCell>
        <mxCell id="nDarf_pPfflu9-YpbUOt-114" value="" style="ellipse;whiteSpace=wrap;html=1;aspect=fixed;" parent="nDarf_pPfflu9-YpbUOt-107" vertex="1">
          <mxGeometry x="38.9273356401384" width="23.356401384083043" height="23.356401384083043" as="geometry" />
        </mxCell>
        <mxCell id="nDarf_pPfflu9-YpbUOt-115" style="rounded=0;orthogonalLoop=1;jettySize=auto;html=1;exitX=1;exitY=0.5;exitDx=0;exitDy=0;entryX=0;entryY=0.5;entryDx=0;entryDy=0;endArrow=none;endFill=0;" parent="nDarf_pPfflu9-YpbUOt-107" source="nDarf_pPfflu9-YpbUOt-116" target="nDarf_pPfflu9-YpbUOt-110" edge="1">
          <mxGeometry relative="1" as="geometry" />
        </mxCell>
        <mxCell id="nDarf_pPfflu9-YpbUOt-116" value="" style="ellipse;whiteSpace=wrap;html=1;aspect=fixed;" parent="nDarf_pPfflu9-YpbUOt-107" vertex="1">
          <mxGeometry y="56.47058823529411" width="23.356401384083043" height="23.356401384083043" as="geometry" />
        </mxCell>
        <mxCell id="nDarf_pPfflu9-YpbUOt-117" style="rounded=0;orthogonalLoop=1;jettySize=auto;html=1;exitX=0.5;exitY=0;exitDx=0;exitDy=0;entryX=0.5;entryY=1;entryDx=0;entryDy=0;endArrow=none;endFill=0;" parent="nDarf_pPfflu9-YpbUOt-107" source="nDarf_pPfflu9-YpbUOt-118" target="nDarf_pPfflu9-YpbUOt-110" edge="1">
          <mxGeometry relative="1" as="geometry" />
        </mxCell>
        <mxCell id="nDarf_pPfflu9-YpbUOt-118" value="" style="ellipse;whiteSpace=wrap;html=1;aspect=fixed;" parent="nDarf_pPfflu9-YpbUOt-107" vertex="1">
          <mxGeometry x="38.9273356401384" y="75.29411764705883" width="23.356401384083043" height="23.356401384083043" as="geometry" />
        </mxCell>
        <mxCell id="nDarf_pPfflu9-YpbUOt-119" style="rounded=0;orthogonalLoop=1;jettySize=auto;html=1;exitX=1;exitY=1;exitDx=0;exitDy=0;entryX=0.056;entryY=0.339;entryDx=0;entryDy=0;entryPerimeter=0;endArrow=none;endFill=0;" parent="nDarf_pPfflu9-YpbUOt-107" source="nDarf_pPfflu9-YpbUOt-116" target="nDarf_pPfflu9-YpbUOt-118" edge="1">
          <mxGeometry relative="1" as="geometry" />
        </mxCell>
        <mxCell id="nDarf_pPfflu9-YpbUOt-120" value="" style="ellipse;whiteSpace=wrap;html=1;aspect=fixed;" parent="nDarf_pPfflu9-YpbUOt-107" vertex="1">
          <mxGeometry x="85.64013840830448" y="56.47058823529411" width="23.356401384083043" height="23.356401384083043" as="geometry" />
        </mxCell>
        <mxCell id="nDarf_pPfflu9-YpbUOt-121" value="Entities mapping&amp;nbsp;&lt;div&gt;of Claim(C)&lt;/div&gt;" style="text;html=1;align=center;verticalAlign=middle;whiteSpace=wrap;rounded=0;" parent="nDarf_pPfflu9-YpbUOt-105" vertex="1">
          <mxGeometry x="-6" y="140" width="160" height="30" as="geometry" />
        </mxCell>
        <mxCell id="nDarf_pPfflu9-YpbUOt-146" value="" style="edgeStyle=orthogonalEdgeStyle;rounded=0;orthogonalLoop=1;jettySize=auto;html=1;" parent="1" source="nDarf_pPfflu9-YpbUOt-139" target="nDarf_pPfflu9-YpbUOt-145" edge="1">
          <mxGeometry relative="1" as="geometry" />
        </mxCell>
        <mxCell id="nDarf_pPfflu9-YpbUOt-159" value="9" style="edgeLabel;html=1;align=center;verticalAlign=middle;resizable=0;points=[];" parent="nDarf_pPfflu9-YpbUOt-146" vertex="1" connectable="0">
          <mxGeometry x="-0.45" y="-1" relative="1" as="geometry">
            <mxPoint as="offset" />
          </mxGeometry>
        </mxCell>
        <mxCell id="nDarf_pPfflu9-YpbUOt-139" value="PT-LLM&lt;div&gt;&lt;br&gt;&lt;/div&gt;&lt;div&gt;ICL and prompting&amp;nbsp;&lt;/div&gt;" style="rounded=1;whiteSpace=wrap;html=1;" parent="1" vertex="1">
          <mxGeometry x="80" y="-406" width="80" height="86" as="geometry" />
        </mxCell>
        <mxCell id="nDarf_pPfflu9-YpbUOt-141" style="edgeStyle=orthogonalEdgeStyle;rounded=0;orthogonalLoop=1;jettySize=auto;html=1;" parent="1" edge="1">
          <mxGeometry relative="1" as="geometry">
            <mxPoint x="120" y="-406" as="targetPoint" />
            <mxPoint x="330" y="-620" as="sourcePoint" />
            <Array as="points">
              <mxPoint x="330" y="-620" />
              <mxPoint x="330" y="-510" />
              <mxPoint x="120" y="-510" />
            </Array>
          </mxGeometry>
        </mxCell>
        <mxCell id="nDarf_pPfflu9-YpbUOt-158" value="8" style="edgeLabel;html=1;align=center;verticalAlign=middle;resizable=0;points=[];" parent="nDarf_pPfflu9-YpbUOt-141" vertex="1" connectable="0">
          <mxGeometry x="0.2877" relative="1" as="geometry">
            <mxPoint as="offset" />
          </mxGeometry>
        </mxCell>
        <mxCell id="nDarf_pPfflu9-YpbUOt-145" value="Claim Refuted/&lt;div&gt;Supported/ Partial Supported&amp;nbsp;&lt;/div&gt;" style="shape=parallelogram;perimeter=parallelogramPerimeter;whiteSpace=wrap;html=1;fixedSize=1;rounded=1;" parent="1" vertex="1">
          <mxGeometry x="60" y="-280" width="120" height="60" as="geometry" />
        </mxCell>
        <mxCell id="nDarf_pPfflu9-YpbUOt-148" value="" style="group" parent="1" vertex="1" connectable="0">
          <mxGeometry x="90" y="-667.5" width="70" height="100" as="geometry" />
        </mxCell>
        <mxCell id="nDarf_pPfflu9-YpbUOt-1" value="" style="rounded=1;whiteSpace=wrap;html=1;" parent="nDarf_pPfflu9-YpbUOt-148" vertex="1">
          <mxGeometry width="70" height="100" as="geometry" />
        </mxCell>
        <mxCell id="nDarf_pPfflu9-YpbUOt-2" value="User" style="shape=umlActor;verticalLabelPosition=bottom;verticalAlign=top;html=1;outlineConnect=0;" parent="nDarf_pPfflu9-YpbUOt-148" vertex="1">
          <mxGeometry x="20" y="20" width="30" height="60" as="geometry" />
        </mxCell>
        <mxCell id="nDarf_pPfflu9-YpbUOt-160" value="Aviratic Score&amp;nbsp;&lt;div&gt;(Gamma)&lt;/div&gt;" style="text;html=1;align=center;verticalAlign=middle;resizable=0;points=[];autosize=1;strokeColor=none;fillColor=none;" parent="1" vertex="1">
          <mxGeometry x="640" y="-607.5" width="100" height="40" as="geometry" />
        </mxCell>
        <mxCell id="nDarf_pPfflu9-YpbUOt-57" style="edgeStyle=orthogonalEdgeStyle;rounded=0;orthogonalLoop=1;jettySize=auto;html=1;exitX=1;exitY=0;exitDx=0;exitDy=0;exitPerimeter=0;entryX=0;entryY=0.5;entryDx=0;entryDy=0;entryPerimeter=0;" parent="1" source="nDarf_pPfflu9-YpbUOt-36" target="nDarf_pPfflu9-YpbUOt-58" edge="1">
          <mxGeometry relative="1" as="geometry">
            <mxPoint x="760" y="-617.5" as="targetPoint" />
            <Array as="points">
              <mxPoint x="600" y="-537" />
              <mxPoint x="640" y="-537" />
              <mxPoint x="640" y="-617" />
            </Array>
          </mxGeometry>
        </mxCell>
        <mxCell id="nDarf_pPfflu9-YpbUOt-153" value="4" style="edgeLabel;html=1;align=center;verticalAlign=middle;resizable=0;points=[];" parent="nDarf_pPfflu9-YpbUOt-57" vertex="1" connectable="0">
          <mxGeometry x="0.5938" relative="1" as="geometry">
            <mxPoint y="1" as="offset" />
          </mxGeometry>
        </mxCell>
        <mxCell id="cOMKCjNGTxWylodBZS9a-2" value="" style="group;strokeWidth=3;" vertex="1" connectable="0" parent="1">
          <mxGeometry x="230" y="-390" width="70" height="70" as="geometry" />
        </mxCell>
        <mxCell id="cOMKCjNGTxWylodBZS9a-3" value="" style="group;strokeWidth=3;" vertex="1" connectable="0" parent="cOMKCjNGTxWylodBZS9a-2">
          <mxGeometry width="70" height="10" as="geometry" />
        </mxCell>
        <mxCell id="cOMKCjNGTxWylodBZS9a-4" value="" style="endArrow=none;html=1;rounded=0;strokeWidth=3;" edge="1" parent="cOMKCjNGTxWylodBZS9a-3">
          <mxGeometry width="50" height="50" relative="1" as="geometry">
            <mxPoint as="sourcePoint" />
            <mxPoint x="70" as="targetPoint" />
          </mxGeometry>
        </mxCell>
        <mxCell id="cOMKCjNGTxWylodBZS9a-5" value="" style="endArrow=none;html=1;rounded=0;strokeWidth=3;" edge="1" parent="cOMKCjNGTxWylodBZS9a-3">
          <mxGeometry width="50" height="50" relative="1" as="geometry">
            <mxPoint y="10" as="sourcePoint" />
            <mxPoint x="70" y="10" as="targetPoint" />
          </mxGeometry>
        </mxCell>
        <mxCell id="cOMKCjNGTxWylodBZS9a-6" value="" style="group;strokeWidth=3;" vertex="1" connectable="0" parent="cOMKCjNGTxWylodBZS9a-2">
          <mxGeometry y="20" width="70" height="10" as="geometry" />
        </mxCell>
        <mxCell id="cOMKCjNGTxWylodBZS9a-7" value="" style="endArrow=none;html=1;rounded=0;strokeWidth=3;" edge="1" parent="cOMKCjNGTxWylodBZS9a-6">
          <mxGeometry width="50" height="50" relative="1" as="geometry">
            <mxPoint as="sourcePoint" />
            <mxPoint x="70" as="targetPoint" />
          </mxGeometry>
        </mxCell>
        <mxCell id="cOMKCjNGTxWylodBZS9a-8" value="" style="endArrow=none;html=1;rounded=0;strokeWidth=3;" edge="1" parent="cOMKCjNGTxWylodBZS9a-6">
          <mxGeometry width="50" height="50" relative="1" as="geometry">
            <mxPoint y="10" as="sourcePoint" />
            <mxPoint x="70" y="10" as="targetPoint" />
          </mxGeometry>
        </mxCell>
        <mxCell id="cOMKCjNGTxWylodBZS9a-9" value="" style="group;strokeWidth=3;" vertex="1" connectable="0" parent="cOMKCjNGTxWylodBZS9a-2">
          <mxGeometry y="40" width="70" height="10" as="geometry" />
        </mxCell>
        <mxCell id="cOMKCjNGTxWylodBZS9a-10" value="" style="endArrow=none;html=1;rounded=0;strokeWidth=3;" edge="1" parent="cOMKCjNGTxWylodBZS9a-9">
          <mxGeometry width="50" height="50" relative="1" as="geometry">
            <mxPoint as="sourcePoint" />
            <mxPoint x="70" as="targetPoint" />
          </mxGeometry>
        </mxCell>
        <mxCell id="cOMKCjNGTxWylodBZS9a-11" value="" style="endArrow=none;html=1;rounded=0;strokeWidth=3;" edge="1" parent="cOMKCjNGTxWylodBZS9a-9">
          <mxGeometry width="50" height="50" relative="1" as="geometry">
            <mxPoint y="10" as="sourcePoint" />
            <mxPoint x="70" y="10" as="targetPoint" />
          </mxGeometry>
        </mxCell>
        <mxCell id="cOMKCjNGTxWylodBZS9a-12" value="" style="group;strokeWidth=3;" vertex="1" connectable="0" parent="cOMKCjNGTxWylodBZS9a-2">
          <mxGeometry y="60" width="70" height="10" as="geometry" />
        </mxCell>
        <mxCell id="cOMKCjNGTxWylodBZS9a-13" value="" style="endArrow=none;html=1;rounded=0;strokeWidth=3;" edge="1" parent="cOMKCjNGTxWylodBZS9a-12">
          <mxGeometry width="50" height="50" relative="1" as="geometry">
            <mxPoint as="sourcePoint" />
            <mxPoint x="70" as="targetPoint" />
          </mxGeometry>
        </mxCell>
        <mxCell id="cOMKCjNGTxWylodBZS9a-14" value="" style="endArrow=none;html=1;rounded=0;strokeWidth=3;" edge="1" parent="cOMKCjNGTxWylodBZS9a-12">
          <mxGeometry width="50" height="50" relative="1" as="geometry">
            <mxPoint y="10" as="sourcePoint" />
            <mxPoint x="70" y="10" as="targetPoint" />
          </mxGeometry>
        </mxCell>
        <mxCell id="cOMKCjNGTxWylodBZS9a-15" value="8" style="endArrow=classic;html=1;rounded=0;entryX=1;entryY=0.5;entryDx=0;entryDy=0;" edge="1" parent="1" target="nDarf_pPfflu9-YpbUOt-139">
          <mxGeometry width="50" height="50" relative="1" as="geometry">
            <mxPoint x="230" y="-363" as="sourcePoint" />
            <mxPoint x="210" y="-350" as="targetPoint" />
          </mxGeometry>
        </mxCell>
        <mxCell id="cOMKCjNGTxWylodBZS9a-17" value="&lt;div&gt;&lt;br&gt;&lt;/div&gt;&lt;div&gt;&lt;br&gt;&lt;/div&gt;Graph +&lt;div&gt;&amp;nbsp;Embedded retrieval&lt;/div&gt;&lt;div&gt;(Hybrid)&lt;br&gt;&lt;div&gt;&lt;br&gt;&lt;/div&gt;&lt;/div&gt;" style="text;html=1;align=center;verticalAlign=middle;resizable=0;points=[];autosize=1;strokeColor=none;fillColor=none;" vertex="1" parent="1">
          <mxGeometry x="200" y="-350" width="130" height="100" as="geometry" />
        </mxCell>
      </root>
    </mxGraphModel>
  </diagram>
</mxfile>
